<svg width="24" height="24" viewBox="0 0 24 24" fill="none" xmlns="http://www.w3.org/2000/svg">
<g id="dukascoin_outline">
<path id="Vector" fill-rule="evenodd" clip-rule="evenodd" d="M12 3.5625C7.3401 3.5625 3.5625 7.3401 3.5625 12C3.5625 16.6599 7.3401 20.4375 12 20.4375C16.6599 20.4375 20.4375 16.6599 20.4375 12C20.4375 7.3401 16.6599 3.5625 12 3.5625ZM2.4375 12C2.4375 6.71878 6.71878 2.4375 12 2.4375C17.2812 2.4375 21.5625 6.71878 21.5625 12C21.5625 17.2812 17.2812 21.5625 12 21.5625C6.71878 21.5625 2.4375 17.2812 2.4375 12ZM11.569 7.31523C11.3987 7.32095 11.2448 7.33676 11.1321 7.36632C11.1141 7.37106 11.0372 7.39732 10.9481 7.64868C10.8843 7.82865 10.8502 8.01236 10.8126 8.21536C10.7968 8.3005 10.7804 8.38903 10.7609 8.48211C10.681 8.86304 10.645 9.26206 10.645 9.88062V9.88633H10.6449C10.6433 10.0476 10.5961 10.2447 10.4454 10.4075L10.4416 10.4115L10.4416 10.4115C10.2751 10.5877 10.0606 10.643 9.88677 10.6449L9.88062 10.645V10.645C9.33285 10.645 8.95874 10.6732 8.61742 10.7344C8.54474 10.7474 8.47405 10.7594 8.40532 10.7711C8.12658 10.8183 7.88015 10.8601 7.66455 10.9443C7.41888 11.0402 7.36171 11.1336 7.3449 11.2345C7.30923 11.4487 7.3117 11.6894 7.31369 11.8828C7.31411 11.9243 7.31452 11.9636 7.31452 12C7.31452 12.0362 7.31418 12.075 7.31382 12.1156C7.31188 12.3374 7.30945 12.6155 7.35884 12.8355C7.36876 12.8796 7.40456 12.9617 7.65372 13.0531C7.84476 13.1233 8.04809 13.1601 8.27449 13.201C8.35563 13.2157 8.43973 13.2309 8.52729 13.2484C8.89443 13.3217 9.28567 13.355 9.88062 13.355H9.88633V13.3551C10.0476 13.3567 10.2447 13.4039 10.4075 13.5546L10.4115 13.5584L10.4115 13.5584C10.5877 13.7249 10.643 13.9394 10.6449 14.1132L10.645 14.1194H10.645C10.645 14.62 10.6685 14.975 10.7191 15.2923C10.7299 15.3602 10.7401 15.429 10.7502 15.4982C10.7877 15.7529 10.826 16.0129 10.9026 16.2529C11.0068 16.5796 11.1086 16.6275 11.1321 16.6337C11.2448 16.6632 11.3987 16.679 11.569 16.6848C11.6895 16.6888 11.7917 16.6876 11.8842 16.6864C11.9244 16.686 11.9627 16.6855 12 16.6855C12.0365 16.6855 12.0743 16.6859 12.1138 16.6864C12.207 16.6874 12.3102 16.6886 12.431 16.6845C12.6009 16.6787 12.7544 16.6629 12.8671 16.6335C12.8912 16.6272 12.993 16.5794 13.0971 16.2532C13.1737 16.0135 13.212 15.7538 13.2495 15.499C13.2597 15.4295 13.2699 15.3605 13.2808 15.2923C13.3314 14.9749 13.355 14.62 13.355 14.1194V14.1137L13.3551 14.1137C13.3567 13.9524 13.4039 13.7552 13.5547 13.5925L13.5585 13.5884L13.5585 13.5884C13.725 13.4123 13.9394 13.357 14.1132 13.3551L14.1194 13.355V13.355C14.6671 13.355 15.0412 13.3268 15.3825 13.2656C15.4599 13.2517 15.5362 13.2391 15.6112 13.2268C15.859 13.1859 16.0928 13.1473 16.3078 13.0717C16.588 12.9733 16.6314 12.8807 16.6415 12.8354C16.6909 12.6158 16.6883 12.3389 16.6862 12.1181C16.6859 12.0765 16.6855 12.0369 16.6855 12C16.6855 11.9636 16.6859 11.9243 16.6863 11.8828C16.6883 11.6894 16.6908 11.4487 16.6551 11.2345C16.6383 11.1337 16.5812 11.0403 16.3355 10.9444C16.12 10.8603 15.8739 10.8186 15.5954 10.7713C15.5264 10.7596 15.4554 10.7476 15.3824 10.7345C15.0411 10.6733 14.667 10.645 14.1194 10.645H14.1137L14.1137 10.6449C13.9524 10.6433 13.7552 10.5961 13.5925 10.4453L13.5884 10.4415L13.5884 10.4415C13.4123 10.275 13.357 10.0606 13.3551 9.88677L13.355 9.88062H13.355C13.355 9.26196 13.3191 8.86295 13.2393 8.48205C13.2198 8.38927 13.2035 8.30098 13.1877 8.21608C13.1499 8.01253 13.1158 7.82842 13.0518 7.64834C12.9627 7.39746 12.8858 7.371 12.867 7.3661C12.7542 7.33662 12.6003 7.32089 12.4303 7.31521C12.31 7.31119 12.2081 7.31243 12.1158 7.31356C12.0756 7.31405 12.0373 7.31452 12 7.31452C11.9627 7.31452 11.9244 7.31405 11.8842 7.31356C11.7917 7.31243 11.6895 7.31119 11.569 7.31523ZM11.9276 6.18866C11.9573 6.18913 11.9818 6.18952 12 6.18952C12.0182 6.18952 12.0427 6.18913 12.0725 6.18866C12.2856 6.18528 12.7686 6.17763 13.1514 6.27762C13.7264 6.42783 13.986 6.9173 14.1119 7.27182C14.2086 7.5441 14.268 7.86557 14.3091 8.08811C14.3209 8.15181 14.3312 8.20741 14.3404 8.25142C14.4224 8.6431 14.4633 9.03471 14.4758 9.52422C14.8947 9.53492 15.243 9.5665 15.5812 9.6272C15.6274 9.6355 15.6795 9.64416 15.736 9.65356C16.0173 9.70035 16.4093 9.76552 16.7446 9.89641C17.1703 10.0626 17.6553 10.3921 17.7648 11.0497C17.819 11.375 17.8138 11.742 17.8113 11.925C17.8108 11.9554 17.8105 11.9808 17.8105 12C17.8105 12.0187 17.8109 12.0435 17.8113 12.0735C17.8144 12.2769 17.821 12.7177 17.7392 13.082C17.5984 13.7086 17.074 13.9949 16.6808 14.1331C16.3617 14.2452 15.9941 14.305 15.7388 14.3466C15.6795 14.3562 15.6262 14.3649 15.5811 14.373C15.2429 14.4336 14.8947 14.4651 14.4758 14.4758C14.4663 14.8485 14.4402 15.1656 14.3917 15.4695C14.3849 15.5121 14.3776 15.5625 14.3695 15.6187C14.3321 15.8761 14.2768 16.2575 14.1688 16.5955C14.044 16.9863 13.7766 17.5588 13.1513 17.722C12.769 17.8218 12.287 17.8145 12.0726 17.8113C12.043 17.8109 12.0184 17.8105 12 17.8105C11.9818 17.8105 11.9573 17.8109 11.9276 17.8113C11.7142 17.8147 11.2299 17.8224 10.8466 17.7218C10.2221 17.558 9.95528 16.9851 9.83078 16.5948C9.72292 16.2566 9.66762 15.8753 9.63033 15.6182C9.62219 15.5621 9.61492 15.5119 9.60814 15.4694C9.5597 15.1655 9.5337 14.8484 9.52421 14.4758C9.05829 14.4639 8.68064 14.4262 8.3071 14.3516C8.26118 14.3425 8.20581 14.3325 8.1436 14.3214C7.90259 14.2783 7.55909 14.2168 7.26602 14.1092C6.88695 13.9701 6.39702 13.6869 6.26117 13.082C6.17946 12.718 6.18579 12.2781 6.18873 12.0736C6.18916 12.0437 6.18952 12.0189 6.18952 12C6.18952 11.9808 6.18916 11.9554 6.18873 11.925C6.18616 11.742 6.18101 11.375 6.23519 11.0497C6.3447 10.3922 6.82956 10.0626 7.25533 9.89636C7.59085 9.76534 7.98297 9.70014 8.26443 9.65334C8.32077 9.64397 8.37268 9.63534 8.41882 9.62707C8.75704 9.5664 9.10529 9.53488 9.52422 9.52421C9.53672 9.03463 9.5777 8.64303 9.65978 8.25136C9.669 8.20737 9.67928 8.15169 9.69107 8.08784C9.7321 7.86568 9.79138 7.54463 9.88772 7.27283C10.0132 6.91882 10.2722 6.42887 10.8466 6.27815C11.2299 6.17759 11.7142 6.18527 11.9276 6.18866Z" fill="#11141A"/>
</g>
</svg>
