<svg width="24" height="24" viewBox="0 0 24 24" fill="none" xmlns="http://www.w3.org/2000/svg">
<g id="bank_outline">
<path id="Vector" fill-rule="evenodd" clip-rule="evenodd" d="M12 2.74609L20.8125 7.15234V7.49999C20.8125 8.00309 20.6514 8.41261 20.3892 8.72728C20.1352 9.03199 19.8113 9.21881 19.5214 9.33476C19.3143 9.4176 19.1112 9.46965 18.9375 9.50262V17.8723C19.277 17.9482 19.5675 18.093 19.8104 18.2873C20.1693 18.5745 20.3936 18.9447 20.5349 19.2836C20.6763 19.6231 20.7443 19.9547 20.7779 20.196C20.7948 20.3182 20.8034 20.4209 20.8078 20.4949C20.8101 20.532 20.8112 20.5621 20.8118 20.5841L20.8124 20.611L20.8125 20.6196L20.8125 20.6227L20.8125 20.624C20.8125 20.624 20.8125 20.625 20.25 20.625H20.8125V21.1875H3.1875V20.625H3.75C3.1875 20.625 3.1875 20.625 3.1875 20.625L3.1875 20.624L3.1875 20.6227L3.18752 20.6196L3.18761 20.611L3.18817 20.5841C3.18879 20.5621 3.18995 20.532 3.19216 20.4949C3.19656 20.4209 3.20518 20.3182 3.22214 20.196C3.25566 19.9547 3.3237 19.6231 3.46514 19.2836C3.60637 18.9447 3.83069 18.5745 4.18962 18.2873C4.43253 18.093 4.72302 17.9482 5.0625 17.8723V9.50262C4.88877 9.46965 4.68569 9.4176 4.47859 9.33476C4.18873 9.21881 3.86477 9.03199 3.61084 8.72728C3.34862 8.41261 3.1875 8.00309 3.1875 7.49999V7.15234L12 2.74609ZM6.1875 9.56249V17.8125H8.8125V9.56249H6.1875ZM9.9375 9.56249V17.8125H14.0625V9.56249H9.9375ZM15.1875 9.56249V17.8125H17.8125V9.56249H15.1875ZM18.3732 8.43749L18.3811 8.43732C18.3895 8.4371 18.4039 8.43659 18.4235 8.43547C18.4628 8.43323 18.5217 8.42857 18.5936 8.41898C18.7403 8.39943 18.9259 8.36129 19.1036 8.29022C19.2534 8.23031 19.3792 8.15438 19.4735 8.06249H4.52647C4.62078 8.15438 4.74664 8.23031 4.89641 8.29022C5.07408 8.36129 5.25969 8.39943 5.40637 8.41898C5.47825 8.42857 5.53723 8.43323 5.57652 8.43547C5.59609 8.43659 5.61051 8.4371 5.61894 8.43732L5.62683 8.43749H18.3732ZM6.13279 6.93749H17.8672L12 4.00388L6.13279 6.93749ZM4.39137 20.0625H19.6086C19.5812 19.9504 19.5447 19.8323 19.4964 19.7163C19.4032 19.4928 19.276 19.3005 19.1076 19.1658C18.948 19.0381 18.7217 18.9375 18.375 18.9375H5.625C5.2783 18.9375 5.05199 19.0381 4.89241 19.1658C4.724 19.3005 4.59675 19.4928 4.50361 19.7163C4.45528 19.8323 4.41879 19.9504 4.39137 20.0625Z" fill="#11141A"/>
</g>
</svg>
