<svg width="24" height="24" viewBox="0 0 24 24" fill="none" xmlns="http://www.w3.org/2000/svg">
<g id="copy">
<g id="Vector">
<path d="M2.8125 3.37506C2.8125 3.0644 3.06434 2.81256 3.375 2.81256H13.5V1.68756H3.375C2.44302 1.68756 1.6875 2.44308 1.6875 3.37506V13.5001H2.8125V3.37506Z" fill="#D92626"/>
<path fill-rule="evenodd" clip-rule="evenodd" d="M7.875 6.18756C6.94302 6.18756 6.1875 6.94308 6.1875 7.87506V20.6251C6.1875 21.557 6.94302 22.3126 7.875 22.3126H20.625C21.557 22.3126 22.3125 21.557 22.3125 20.6251V7.87506C22.3125 6.94308 21.557 6.18756 20.625 6.18756H7.875ZM7.3125 7.87506C7.3125 7.5644 7.56434 7.31256 7.875 7.31256H20.625C20.9357 7.31256 21.1875 7.5644 21.1875 7.87506V20.6251C21.1875 20.9357 20.9357 21.1876 20.625 21.1876H7.875C7.56434 21.1876 7.3125 20.9357 7.3125 20.6251V7.87506Z" fill="#D92626"/>
</g>
</g>
</svg>
