<svg width="24" height="24" viewBox="0 0 24 24" fill="none" xmlns="http://www.w3.org/2000/svg">
<g id="load_in">
<g id="vector">
<path d="M10.6334 5.51246C9.64566 4.4372 8.35519 3.78387 6.9581 3.22754L6.5419 4.27272C7.89579 4.81184 8.99256 5.38921 9.80489 6.27352C10.7943 7.35061 11.4375 8.97001 11.4375 11.7859L11.4375 14.3922L8.64771 11.6024L7.85221 12.3979L12 16.5457L16.1477 12.3979L15.3522 11.6024L12.5625 14.3921L12.5625 11.7858C12.5625 8.79729 11.8763 6.86553 10.6334 5.51246Z" fill="#11141A"/>
<path d="M4.3125 15.0001V18.7501C4.3125 19.1676 4.77067 19.6876 5.58333 19.6876H18.4167C19.2293 19.6876 19.6875 19.1676 19.6875 18.7501V15.0001H20.8125V18.7501C20.8125 19.9895 19.629 20.8126 18.4167 20.8126H5.58333C4.37095 20.8126 3.1875 19.9895 3.1875 18.7501V15.0001H4.3125Z" fill="#11141A"/>
</g>
</g>
</svg>
