<svg width="24" height="24" viewBox="0 0 24 24" fill="none" xmlns="http://www.w3.org/2000/svg">
<g id="transfer_incoming">
<path id="Vector" fill-rule="evenodd" clip-rule="evenodd" d="M8.8125 12C6.2925 12 4.3125 10.02 4.3125 7.5C4.3125 4.98 6.2925 3 8.8125 3C11.3325 3 13.3125 4.98 13.3125 7.5C13.3125 10.02 11.3325 12 8.8125 12ZM8.8125 10.875C6.91382 10.875 5.4375 9.39868 5.4375 7.5C5.4375 5.60132 6.91382 4.125 8.8125 4.125C10.7112 4.125 12.1875 5.60132 12.1875 7.5C12.1875 9.39868 10.7112 10.875 8.8125 10.875ZM2.625 18C2.625 16.2107 4.02316 14.8125 5.8125 14.8125H11.8125C13.6018 14.8125 15 16.2107 15 18V21H16.125V18C16.125 15.5893 14.2232 13.6875 11.8125 13.6875H5.8125C3.40184 13.6875 1.5 15.5893 1.5 18V21H2.625V18ZM18.9092 14.2236L16.1249 11.4394L18.9092 8.65517L19.7047 9.45066L18.2785 10.8768L23.6219 10.8768V12.0018L18.2784 12.0018L19.7047 13.4281L18.9092 14.2236Z" fill="#11141A"/>
</g>
</svg>
