<svg width="18" height="21" viewBox="0 0 18 21" fill="none" xmlns="http://www.w3.org/2000/svg">
<path id="Vector" fill-rule="evenodd" clip-rule="evenodd" d="M14.0754 5.49828H16.6873C17.0353 5.49872 17.3689 5.63716 17.615 5.88326C17.8611 6.12935 17.9996 6.46299 18 6.81102V9.99983C17.9996 10.3479 17.8611 10.6815 17.615 10.9276C17.3689 11.1737 17.0353 11.3121 16.6873 11.3126L16.5 11.3128V19.1873C16.4996 19.5354 16.3611 19.869 16.115 20.1151C15.8689 20.3612 15.5353 20.4996 15.1873 20.5001H2.81273C2.46471 20.4996 2.13106 20.3612 1.88497 20.1151C1.63891 19.869 1.50047 19.5353 1.5 19.1873V11.3128L1.31273 11.3126C0.964709 11.3121 0.631062 11.1737 0.384971 10.9276C0.138906 10.6815 0.000463933 10.3479 0 9.99994V6.81091C0.000463933 6.46292 0.138906 6.12932 0.384971 5.88326C0.631062 5.63716 0.964709 5.49872 1.31273 5.49828H3.92296L3.72686 5.20626C3.26927 4.52484 3.09308 3.6928 3.23518 2.88439C3.37728 2.07598 3.82666 1.3539 4.48919 0.869374C5.15173 0.384849 5.97604 0.175458 6.78949 0.285052C7.60295 0.394647 8.34245 0.814727 8.85314 1.45732L9.00045 1.64268L9.14712 1.4568C9.65667 0.811025 10.3968 0.388022 11.2119 0.276766C12.0269 0.16551 12.8533 0.374673 13.5173 0.86026C14.1813 1.34585 14.6311 2.07001 14.7721 2.88044C14.9131 3.69087 14.7343 4.5244 14.2734 5.20571L14.0754 5.49828ZM9.56242 3.43578V5.49828H11.6249C12.0328 5.49828 12.4316 5.37732 12.7708 5.15069C13.11 4.92406 13.3743 4.60194 13.5304 4.22507C13.6865 3.8482 13.7274 3.4335 13.6478 3.03341C13.5682 2.63332 13.3718 2.26582 13.0833 1.97738C12.7949 1.68893 12.4274 1.4925 12.0273 1.41291C11.6272 1.33333 11.2125 1.37418 10.8356 1.53028C10.4588 1.68639 10.1366 1.95074 9.91002 2.28992C9.68339 2.6291 9.56242 3.02786 9.56242 3.43578ZM7.83268 1.97803C7.44607 1.59142 6.9219 1.37394 6.37515 1.37328C5.82814 1.37328 5.30331 1.59058 4.91652 1.97738C4.52972 2.36417 4.31243 2.88878 4.31243 3.43578C4.31243 3.98279 4.52972 4.5074 4.91652 4.89419C5.30331 5.28099 5.82792 5.49828 6.37492 5.49828H8.43742V3.43556C8.43677 2.88881 8.21928 2.36464 7.83268 1.97803ZM8.43742 6.62328H1.125V10.1876H8.43742V6.62328ZM8.43742 11.3126H2.625L2.625 19.3751H8.43742V11.3126ZM9.56242 19.3751H15.3759L15.375 11.3126H9.56242V19.3751ZM9.56242 6.62328V10.1876H16.876L16.8749 6.62328H9.56242Z" fill="#11141A"/>
</svg>
