<svg width="18" height="14" viewBox="0 0 18 14" fill="none" xmlns="http://www.w3.org/2000/svg">
<path id="Vector" fill-rule="evenodd" clip-rule="evenodd" d="M0.1875 2.125C0.1875 0.985913 1.11091 0.0625 2.25 0.0625H15.75C16.8891 0.0625 17.8125 0.985913 17.8125 2.125V11.875C17.8125 13.0141 16.8891 13.9375 15.75 13.9375H2.25C1.11091 13.9375 0.1875 13.0141 0.1875 11.875V2.125ZM2.25 1.1875C1.73223 1.1875 1.3125 1.60723 1.3125 2.125V4.5625H16.6875V2.125C16.6875 1.60723 16.2678 1.1875 15.75 1.1875H2.25ZM16.6875 5.6875H1.3125V11.875C1.3125 12.3928 1.73223 12.8125 2.25 12.8125H15.75C16.2678 12.8125 16.6875 12.3928 16.6875 11.875V5.6875ZM7.5 10.1875H3.75V9.0625H7.5V10.1875Z" fill="#11141A"/>
</svg>
