<svg width="23" height="18" viewBox="0 0 23 18" fill="none" xmlns="http://www.w3.org/2000/svg">
<path id="Vector" fill-rule="evenodd" clip-rule="evenodd" d="M7.8125 9C5.2925 9 3.3125 7.02 3.3125 4.5C3.3125 1.98 5.2925 0 7.8125 0C10.3325 0 12.3125 1.98 12.3125 4.5C12.3125 7.02 10.3325 9 7.8125 9ZM7.8125 7.875C5.91382 7.875 4.4375 6.39868 4.4375 4.5C4.4375 2.60132 5.91382 1.125 7.8125 1.125C9.71118 1.125 11.1875 2.60132 11.1875 4.5C11.1875 6.39868 9.71118 7.875 7.8125 7.875ZM1.625 15C1.625 13.2107 3.02316 11.8125 4.8125 11.8125H10.8125C12.6018 11.8125 14 13.2107 14 15V18H15.125V15C15.125 12.5893 13.2232 10.6875 10.8125 10.6875H4.8125C2.40184 10.6875 0.5 12.5893 0.5 15V18H1.625V15ZM19.8377 5.65503L22.622 8.43926L19.8377 11.2235L19.0422 10.428L20.4684 9.00182L15.125 9.00182V7.87682L20.4685 7.87682L19.0422 6.45053L19.8377 5.65503Z" fill="#11141A"/>
</svg>
