<svg width="18" height="18" viewBox="0 0 18 18" fill="none" xmlns="http://www.w3.org/2000/svg">
<g id="Vector">
<path fill-rule="evenodd" clip-rule="evenodd" d="M1.3125 5.54078L5.7494 7.74871L6.2506 6.74152L2.05707 4.65471L6.2334 2.75007L5.7666 1.72649L0.1875 4.27086V13.5928L8.99981 17.9988L17.8121 13.5928V4.63257H16.6871V12.8975L8.99981 16.7411L1.3125 12.8975V5.54078Z" fill="#11141A"/>
<path fill-rule="evenodd" clip-rule="evenodd" d="M8.43757 13.6202H9.56257V17.3702H8.43757V13.6202Z" fill="#11141A"/>
<path fill-rule="evenodd" clip-rule="evenodd" d="M8.99999 0.307617V1.43262L12.4758 1.43262C11.6893 1.84915 10.9712 2.34925 10.3666 3.00745C9.12367 4.36052 8.43754 6.29228 8.4375 9.28083V12.1201H9.5625V9.28085C9.56254 6.465 10.2057 4.8456 11.1951 3.76851C11.8473 3.05854 12.6828 2.54643 13.6875 2.09311V6.12012L14.8125 6.12012V0.307617H8.99999Z" fill="#11141A"/>
</g>
</svg>
