<svg width="22" height="18" viewBox="0 0 22 18" fill="none" xmlns="http://www.w3.org/2000/svg">
<path id="Vector" fill-rule="evenodd" clip-rule="evenodd" d="M16.6624 0.1125C16.746 0.0498225 16.8454 0.0116545 16.9494 0.0022732C17.0535 -0.00710827 17.1581 0.0126677 17.2515 0.0593847C17.3449 0.106102 17.4235 0.177915 17.4784 0.266777C17.5334 0.355638 17.5624 0.458037 17.5624 0.5625V3.53723L17.6268 3.59328C18.0546 3.96579 18.4014 4.4221 18.6458 4.93399C18.8901 5.44589 19.0269 6.00248 19.0476 6.56933L19.0542 6.75H20.9375C21.0867 6.75 21.2298 6.80926 21.3352 6.91475C21.4407 7.02024 21.5 7.16332 21.5 7.3125V11.0625C21.5 11.2117 21.4407 11.3548 21.3352 11.4602C21.2298 11.5657 21.0867 11.625 20.9375 11.625H18.9593L18.9299 11.777C18.822 12.3368 18.5837 12.8633 18.2345 13.314C17.8852 13.7646 17.4348 14.1267 16.9196 14.371L16.8124 14.4218V17.4375C16.8124 17.5867 16.7532 17.7298 16.6477 17.8352C16.5422 17.9407 16.3991 18 16.2499 18H13.2499C13.1008 18 12.9577 17.9407 12.8522 17.8352C12.7467 17.7298 12.6874 17.5867 12.6874 17.4375V15.375H10.0624V17.4375C10.0624 17.5867 10.0032 17.7298 9.89769 17.8352C9.79221 17.9407 9.64913 18 9.49995 18H6.49995C6.35076 18 6.20769 17.9407 6.1022 17.8352C5.99671 17.7298 5.93745 17.5867 5.93745 17.4375V14.3812L5.85598 14.3253C5.06223 13.781 4.3952 13.072 3.9004 12.2465C3.4056 11.421 3.09467 10.4985 2.98881 9.54188L2.97034 9.375L2.56271 9.375C2.01583 9.3744 1.49152 9.15689 1.10482 8.77018C0.718137 8.38351 0.500627 7.85924 0.5 7.31239V6H1.625L1.625 7.3125C1.62522 7.56103 1.72405 7.79948 1.89978 7.97522C2.07552 8.15095 2.3138 8.24978 2.56233 8.25L2.95793 8.25L2.9751 8.08152C3.32736 4.62586 6.19505 2.25 10.2499 2.25H13.8123L16.6624 0.1125ZM20.375 10.5V7.875H17.9436C17.9375 7.68132 17.9375 7.49528 17.9375 7.31272V7.29729C17.9375 6.74102 17.9375 6.2083 17.7383 5.67068C17.5416 5.13981 17.1586 4.62169 16.4374 4.05315V1.68749L14.1876 3.375H10.2499C8.72588 3.375 7.183 3.7888 6.01634 4.67845C4.84364 5.57272 4.06261 6.93998 4.06245 8.81191C4.05591 9.84738 4.34465 10.8633 4.89483 11.7405C5.42401 12.5843 6.17397 13.2662 7.06245 13.7129V16.875H8.93745V14.25H13.8124V16.875H15.6874V13.68C16.4879 13.3815 17.0264 13.0779 17.3847 12.5813C17.7371 12.0929 17.8969 11.4423 18.0101 10.5H20.375ZM12.3124 12.375H11.1874V11.625H9.68745V10.5H12.1249C12.2741 10.5 12.4172 10.4407 12.5227 10.3352C12.6282 10.2298 12.6874 10.0867 12.6874 9.9375C12.6874 9.78832 12.6282 9.64524 12.5227 9.53975C12.4172 9.43426 12.2741 9.375 12.1249 9.375H11.3751C10.957 9.37476 10.554 9.21938 10.244 8.93896C9.93396 8.65853 9.73907 8.27302 9.69705 7.85712C9.65504 7.44121 9.76888 7.02452 10.0165 6.68775C10.2642 6.35099 10.628 6.11813 11.0376 6.03429L11.1874 6.0036V5.25H12.3124V6H13.8124V7.125H11.3749C11.2258 7.125 11.0827 7.18426 10.9772 7.28975C10.8717 7.39524 10.8124 7.53832 10.8124 7.6875C10.8124 7.83668 10.8717 7.97976 10.9772 8.08525C11.0827 8.19074 11.2258 8.25 11.3749 8.25H12.1248C12.5429 8.25024 12.9459 8.40562 13.2559 8.68604C13.5659 8.96647 13.7608 9.35198 13.8028 9.76788C13.8449 10.1838 13.731 10.6005 13.4834 10.9372C13.2357 11.274 12.8719 11.5069 12.4623 11.5907L12.3124 11.6214V12.375Z" fill="#11141A"/>
</svg>
