<svg width="24" height="24" viewBox="0 0 24 24" fill="none" xmlns="http://www.w3.org/2000/svg">
<g id="deposit_new">
<path id="Vector" fill-rule="evenodd" clip-rule="evenodd" d="M14.1683 4.02002V5.14502L18.0603 5.14502L4.02051 19.1848L4.816 19.9803L18.8558 5.94052L18.8558 9.83252L19.9808 9.83252L19.9808 4.02002H14.1683ZM19.7932 16.9575C19.7932 18.6144 18.4501 19.9575 16.7932 19.9575C15.1364 19.9575 13.7932 18.6144 13.7932 16.9575C13.7932 15.3007 15.1364 13.9575 16.7932 13.9575C18.4501 13.9575 19.7932 15.3007 19.7932 16.9575ZM18.6682 16.9575C18.6682 17.9931 17.8287 18.8325 16.7932 18.8325C15.7577 18.8325 14.9182 17.9931 14.9182 16.9575C14.9182 15.922 15.7577 15.0825 16.7932 15.0825C17.8287 15.0825 18.6682 15.922 18.6682 16.9575ZM7.04321 10.2075C8.70007 10.2075 10.0432 8.86437 10.0432 7.20752C10.0432 5.55067 8.70007 4.20752 7.04321 4.20752C5.38636 4.20752 4.04321 5.55067 4.04321 7.20752C4.04321 8.86437 5.38636 10.2075 7.04321 10.2075ZM7.04321 9.08252C8.07875 9.08252 8.91821 8.24305 8.91821 7.20752C8.91821 6.17199 8.07875 5.33252 7.04321 5.33252C6.00768 5.33252 5.16821 6.17199 5.16821 7.20752C5.16821 8.24305 6.00768 9.08252 7.04321 9.08252Z" fill="#11141A"/>
</g>
</svg>
