<svg width="18" height="18" viewBox="0 0 18 18" fill="none" xmlns="http://www.w3.org/2000/svg">
<g id="vector">
<path d="M14.8126 0.1875H9V1.3125L13.1304 1.3125C11.9071 1.79571 10.7932 2.38056 9.8973 3.23391C8.47965 4.58428 7.68756 6.526 7.68751 9.53405L7.6875 12.7483L8.8125 12.7483L8.81251 9.53407C8.81255 6.73773 9.53964 5.12829 10.6732 4.0485C11.4561 3.30282 12.4692 2.77292 13.6876 2.30286L13.6875 5.99999L14.8125 6.00001L14.8126 0.1875Z" fill="#11141A"/>
<path d="M1.3125 11.9984V15.7484C1.3125 16.1658 1.77067 16.6859 2.58333 16.6859H15.4167C16.2293 16.6859 16.6875 16.1658 16.6875 15.7484V11.9984H17.8125V15.7484C17.8125 16.9877 16.629 17.8109 15.4167 17.8109H2.58333C1.37095 17.8109 0.1875 16.9877 0.1875 15.7484V11.9984H1.3125Z" fill="#11141A"/>
</g>
</svg>
